HIERARCHY
ROOT Hips
{
	OFFSET -0.001795 -0.223333 0.028219
	CHANNELS 6 Xposition Yposition Zposition Zrotation Yrotation Xrotation 
	JOINT LeftUpLeg
	{
		OFFSET 0.069520 -0.091406 -0.006815
		CHANNELS 3 Zrotation Yrotation Xrotation
		JOINT LeftLeg
		{
			OFFSET 0.034277 -0.375199 -0.004496
			CHANNELS 3 Zrotation Yrotation Xrotation
			JOINT LeftFoot
			{
				OFFSET -0.013596 -0.397961 -0.043693
				CHANNELS 3 Zrotation Yrotation Xrotation
				JOINT LeftToe
				{
					OFFSET 0.026358 -0.055791 0.119288
					CHANNELS 3 Zrotation Yrotation Xrotation
					End Site
					{
						OFFSET 0.000000 0.000000 0.000000
					}
				}
			}
		}
	}
	JOINT RightUpLeg
	{
		OFFSET -0.067670 -0.090522 -0.004320
		CHANNELS 3 Zrotation Yrotation Xrotation
		JOINT RightLeg
		{
			OFFSET -0.038290 -0.382569 -0.008850
			CHANNELS 3 Zrotation Yrotation Xrotation
			JOINT RightFoot
			{
				OFFSET 0.015774 -0.398415 -0.042312
				CHANNELS 3 Zrotation Yrotation Xrotation
				JOINT RightToe
				{
					OFFSET -0.025372 -0.048144 0.123348
					CHANNELS 3 Zrotation Yrotation Xrotation
					End Site
					{
						OFFSET 0.000000 0.000000 0.000000
					}
				}
			}
		}
	}
	JOINT Spine
	{
		OFFSET -0.002533 0.108963 -0.026696
		CHANNELS 3 Zrotation Yrotation Xrotation
		JOINT Spine1
		{
			OFFSET 0.005487 0.135180 0.001092
			CHANNELS 3 Zrotation Yrotation Xrotation
			JOINT Spine2
			{
				OFFSET 0.001457 0.052922 0.025425
				CHANNELS 3 Zrotation Yrotation Xrotation
				JOINT Neck
				{
					OFFSET -0.002778 0.213870 -0.042857
					CHANNELS 3 Zrotation Yrotation Xrotation
					JOINT Head
					{
						OFFSET 0.005152 0.064970 0.051349
						CHANNELS 3 Zrotation Yrotation Xrotation
						End Site
						{
							OFFSET 0.000000 0.000000 0.000000
						}
					}
				}
				JOINT LeftShoulder
				{
					OFFSET 0.078845 0.121749 -0.034090
					CHANNELS 3 Zrotation Yrotation Xrotation
					JOINT LeftArm
					{
						OFFSET 0.090977 0.030469 -0.008868
						CHANNELS 3 Zrotation Yrotation Xrotation
						JOINT LeftForeArm
						{
							OFFSET 0.259612 -0.012772 -0.027456
							CHANNELS 3 Zrotation Yrotation Xrotation
							JOINT LeftHand
							{
								OFFSET 0.249234 0.008986 -0.001171
								CHANNELS 3 Zrotation Yrotation Xrotation
								End Site
								{
									OFFSET 0.000000 0.000000 0.000000
								}
							}
						}
					}
				}
				JOINT RightShoulder
				{
					OFFSET -0.081759 0.118833 -0.038615
					CHANNELS 3 Zrotation Yrotation Xrotation
					JOINT RightArm
					{
						OFFSET -0.096012 0.032551 -0.009143
						CHANNELS 3 Zrotation Yrotation Xrotation
						JOINT RightForeArm
						{
							OFFSET -0.253742 -0.013329 -0.021401
							CHANNELS 3 Zrotation Yrotation Xrotation
							JOINT RightHand
							{
								OFFSET -0.255298 0.007772 -0.005559
								CHANNELS 3 Zrotation Yrotation Xrotation
								End Site
								{
									OFFSET 0.000000 0.000000 0.000000
								}
							}
						}
					}
				}
			}
		}
	}
}
MOTION
Frames: 8
Frame Time: 0.050000
0.000000 0.880419 0.000000 1.532389 -18.570066 -2.507857 -0.398523 -1.332456 -30.309112 -3.396207 3.373883 37.770293 -7.372187 -13.250026 3.052410 0.000000 0.000000 0.000000 -4.070905 0.971529 -10.563121 2.301749 3.498854 37.740163 -6.255175 -8.849286 -12.302864 0.000000 0.000000 0.000000 4.751661 -0.745764 34.343368 -6.279478 1.854553 -20.047254 -3.119804 11.652425 26.675002 13.824790 -8.076255 -18.318247 0.000000 0.000000 0.000000 -9.678906 -18.930857 7.624145 -44.271793 -14.230541 -2.460216 -131.367824 -78.980726 129.244386 0.000000 0.000000 0.000000 20.023098 7.538433 3.661679 43.964334 10.460868 -3.153141 109.170696 59.167967 84.170628 0.000000 0.000000 0.000000 
0.000077 0.883303 0.018392 0.919270 -18.238275 -3.185201 -1.078058 -1.566691 -27.711933 -2.213168 2.693621 37.256389 -7.046095 -13.687055 1.246034 0.000000 0.000000 0.000000 -3.447020 0.853816 -9.204649 2.776489 3.557050 39.635568 -6.349610 -10.683677 -10.030813 0.000000 0.000000 0.000000 4.280252 -0.681651 33.403173 -5.267064 1.553787 -21.053912 -2.558637 14.487022 28.035635 14.445784 -7.572083 -20.640570 0.000000 0.000000 0.000000 -11.712383 -18.553928 7.230618 -42.959425 -11.772937 -3.282755 -126.087181 -74.785762 117.930016 0.000000 0.000000 0.000000 20.148390 5.201344 3.125326 44.660910 7.428382 -4.526229 112.915789 53.957734 83.813386 0.000000 0.000000 0.000000 
0.000047 0.888645 0.037146 1.484896 -15.216922 -4.027908 -3.141464 -2.241920 -25.587790 -1.339850 1.750605 36.857956 -8.004955 -15.293876 2.022790 0.000000 0.000000 0.000000 -4.308321 0.544964 -5.642988 3.330717 2.632506 38.281404 -6.660441 -12.523916 -9.000485 0.000000 0.000000 0.000000 4.900119 -1.183421 30.967924 -7.690675 2.381298 -19.767417 -2.235592 12.139149 28.064144 13.464399 -7.188732 -20.057931 0.000000 0.000000 0.000000 -11.944104 -16.764454 6.580462 -41.831790 -9.041842 -4.114229 -122.128053 -70.369439 109.250644 0.000000 0.000000 0.000000 21.103082 3.715760 2.098564 42.011359 4.864314 -5.134881 113.093230 49.726208 77.561781 0.000000 0.000000 0.000000 
-0.000139 0.897388 0.055765 2.146498 -15.897329 -5.291358 -4.638595 -2.363884 -22.229619 -0.661447 1.451309 35.314104 -7.802290 -14.498001 2.753402 0.000000 0.000000 0.000000 -4.584791 0.527344 -5.409529 2.609506 3.370517 40.318088 -6.051979 -13.507096 -2.345368 0.000000 0.000000 0.000000 3.819074 -0.822668 30.320171 -7.365939 2.226705 -21.345372 -2.397550 14.128811 29.956117 13.290594 -7.137471 -19.221828 0.000000 0.000000 0.000000 -11.307305 -15.202961 5.668903 -41.512793 -4.386700 -5.723032 -124.234591 -63.754417 104.124772 0.000000 0.000000 0.000000 22.390919 1.309148 1.177731 41.273384 2.629294 -6.077181 115.152777 44.023137 73.115631 0.000000 0.000000 0.000000 
-0.000425 0.908408 0.072555 2.034252 -15.714244 -5.897933 -5.210992 -2.199361 -18.476627 -0.311973 1.031453 31.993380 -8.001887 -14.445976 3.648285 0.000000 0.000000 0.000000 -3.759340 0.528815 -5.592707 1.781057 3.953722 41.572973 -5.859131 -14.863349 3.253653 0.000000 0.000000 0.000000 3.804203 -0.853660 28.409543 -8.708501 2.666213 -20.485478 -1.618474 13.637600 29.429502 12.891580 -7.297840 -17.502832 0.000000 0.000000 0.000000 -9.712926 -12.724251 4.595386 -42.896488 0.797285 -7.586162 -123.405502 -58.996869 98.005894 0.000000 0.000000 0.000000 22.463661 -0.700343 -0.164143 40.359808 0.649359 -6.454790 114.937063 40.539671 67.473385 0.000000 0.000000 0.000000 
-0.001162 0.921224 0.086354 1.504521 -15.324009 -6.029550 -5.087636 -1.851085 -14.705415 -0.155166 0.606854 27.544025 -8.483071 -14.584520 5.158555 0.000000 0.000000 0.000000 -3.481502 0.626219 -6.933948 1.572998 4.061455 42.087034 -5.004855 -14.336194 7.446923 0.000000 0.000000 0.000000 3.969928 -0.935229 28.053718 -8.838195 2.631182 -22.614781 -0.736320 14.225308 31.271080 12.380133 -6.640305 -18.562276 0.000000 0.000000 0.000000 -9.565834 -11.254761 3.923132 -43.064132 4.893201 -9.128244 -122.658183 -53.344773 89.972812 0.000000 0.000000 0.000000 22.045099 -2.257703 -0.801861 40.110497 -1.142405 -7.158273 115.376179 37.550556 64.267616 0.000000 0.000000 0.000000 
-0.002704 0.933083 0.097318 0.676251 -14.775470 -5.470951 -4.516788 -1.484732 -11.758915 0.133000 0.203941 22.994599 -9.132303 -14.895796 6.847041 0.000000 0.000000 0.000000 -2.226587 0.806817 -8.682655 1.239372 4.031763 41.599390 -5.029172 -12.585695 1.353580 0.000000 0.000000 0.000000 3.718410 -0.947082 27.437331 -8.435598 2.497362 -22.940039 -0.418653 14.048092 31.044224 12.320821 -6.571383 -18.581601 0.000000 0.000000 0.000000 -7.940337 -9.071386 3.005407 -44.187227 8.361424 -10.578954 -122.313235 -50.146497 85.369739 0.000000 0.000000 0.000000 22.676100 -3.100226 -1.298675 37.886284 -2.378919 -7.117217 114.144353 36.443457 60.759839 0.000000 0.000000 0.000000 
-0.005377 0.942311 0.106574 -0.165467 -14.043416 -4.074849 -3.664793 -1.252536 -10.454578 0.294839 -0.031135 19.460608 -9.898126 -15.340198 8.506835 0.000000 0.000000 0.000000 -1.051114 1.074691 -10.766050 0.771291 3.640300 38.685987 -4.762550 -10.006982 -3.682223 0.000000 0.000000 0.000000 3.716194 -1.028013 27.300114 -8.451737 2.495990 -23.127596 0.061646 13.734176 30.297017 11.550184 -5.929685 -18.544095 0.000000 0.000000 0.000000 -8.047649 -8.220932 2.610042 -43.985881 9.742731 -10.879841 -122.264481 -48.505101 82.784021 0.000000 0.000000 0.000000 21.956219 -3.554756 -1.550239 36.743442 -3.077573 -6.978300 113.204148 36.909649 60.127707 0.000000 0.000000 0.000000 
